# xmcd
#
# Track frame offsets: 
#        180
#        11710
#        24832
#        34638
#        46349
#        58639
#        70245
#        83446
#        94449
#        107043
#        119171
#        130240
#        142352
#        155911
#        167805
#        179175
#        190066
#        202737
#        212658
#        224501
#
# Disc length: 3174 seconds
#
# Revision: 0
# Processed by: cddbd v1.5.1PL2 Copyright (c) Steve Scherf et al.
# Submitted via: ExactAudioCopy v0.95b4
#
DISCID=2e0c6414
DTITLE=Various Artist - 20 Golden Coun
DYEAR=1998
DGENRE=Country
TTITLE0=Jim Reeves - Welcome To My World
TTITLE1=Johnny Lion - Ginny Come Lately
TTITLE2=Hank Locklin - Please Help Me I'm Falling
TTITLE3=Skeeter avis - (I Can't Help You) I'm Falling Too
TTITLE4=Bobby Helm - Fraulein
TTITLE5=The Everly Brothers - Let It Be Me
TTITLE6=Patti Page - Tennessee Waltz
TTITLE7=Bobby Vee - More Than I Can Say
TTITLE8=David Houston - My Elusive Dream
TTITLE9=Sandy Posey - Young Love
TTITLE10=Don Gibson - Oh Lonesome Me
TTITLE11=Johnny Cash - I Walk The Line
TTITLE12=Kingstone Trio - Tom Dooley
TTITLE13=Wanda Jackson - Right Or Wrong
TTITLE14=Johnny Lee - Ramblin' Rose
TTITLE15=Guy Mitchell - Singin' The Blues
TTITLE16=Patsy Cline - I Fall To Pieces
TTITLE17=Frankie Laine - I Believe
TTITLE18=Jack Greene - All The Time
TTITLE19=Lynn Anderson - Rose Garden
EXTD=
EXTT0=
EXTT1=
EXTT2=
EXTT3=
EXTT4=
EXTT5=
EXTT6=
EXTT7=
EXTT8=
EXTT9=
EXTT10=
EXTT11=
EXTT12=
EXTT13=
EXTT14=
EXTT15=
EXTT16=
EXTT17=
EXTT18=
EXTT19=
PLAYORDER=
